# xmcd CD database file
#
# Track frame offsets:
#	150
#	18938
#	34504
#	49705
#	65821
#	86594
#	109630
#	130665
#	150606
#	167809
#	185345
#	203662
#
# Disc length: 2951 seconds
#
# Revision: 1
# Processed by: cddbd v1.5.2PL0 Copyright (c) Steve Scherf et al.
# Submitted via: CDex 1.70beta2
#
DISCID=930b850c
DTITLE=鄭敬基 - 夜顏
DYEAR=1988
DGENRE=Pop
TTITLE0=熱情終站
TTITLE1=愛的輕紗
TTITLE2=陌生人
TTITLE3=旭日背後
TTITLE4=灰色的呼號
TTITLE5=酒杯敲鋼琴
TTITLE6=夜顏
TTITLE7=走開
TTITLE8=晚霞
TTITLE9=最後勝利
TTITLE10=夢裡 SUPERSTAR
TTITLE11=愛的輕紗(純音樂版)
EXTD=YEAR: 1988
EXTT0=
EXTT1=
EXTT2=
EXTT3=
EXTT4=
EXTT5=
EXTT6=
EXTT7=
EXTT8=
EXTT9=
EXTT10=
EXTT11=
PLAYORDER=
